<svg xmlns="http://www.w3.org/2000/svg" xmlns:xlink="http://www.w3.org/1999/xlink" width="100" height="100" fill="none" viewBox="0 0 166 166">
  <g clip-path="url(#a)">
    <path fill="#fff" d="m126.076 44.896-8.898-6.014a1.06 1.06 0 0 1 .887-1.899l6.15 1.768a2.051 2.051 0 0 0 2.979-2.232l-.012-.052a2.053 2.053 0 0 0-.107-.35l-1.435-4.416a8.819 8.819 0 0 0-6.859-5.968l-10.575-1.875a1.06 1.06 0 0 1 .038-2.096l6.744-.944a2.05 2.05 0 0 0 1.24-3.403l-3.243-3.602a8.816 8.816 0 0 0-8.694-2.663l-10.423 2.59a1.06 1.06 0 0 1-.818-1.93l5.778-3.606a2.052 2.052 0 0 0-.252-3.613l-4.428-1.972a8.817 8.817 0 0 0-9.025 1.104l-8.47 6.604a1.06 1.06 0 0 1-1.671-.54 1.046 1.046 0 0 1 .14-.89l3.81-5.644c.26-.382.37-.82.35-1.248A2.05 2.05 0 0 0 77.232 0h-4.847a8.817 8.817 0 0 0-7.796 4.68l-5.05 9.477a1.06 1.06 0 0 1-.93.562h-.008c-.428 0-.69-.235-.81-.377a1.047 1.047 0 0 1-.234-.869l1.186-6.706a2.051 2.051 0 0 0-2.853-2.23l-4.429 1.97a8.817 8.817 0 0 0-5.218 7.446l-.76 10.713a1.06 1.06 0 0 1-1.52.88 1.047 1.047 0 0 1-.568-.699l-1.643-6.609a2.051 2.051 0 0 0-3.515-.877l-3.243 3.602a8.817 8.817 0 0 0-1.74 8.925l3.665 10.096a1.06 1.06 0 0 1-1.834 1.015l-4.19-5.37a2.05 2.05 0 0 0-3.567.629l-1.498 4.61a8.818 8.818 0 0 0 2.04 8.86l7.454 7.733a1.06 1.06 0 0 1-.363 1.718 1.046 1.046 0 0 1-.9-.045l-6.01-3.202a2.052 2.052 0 0 0-3.004 2.025l.507 4.821a8.818 8.818 0 0 0 5.469 7.265l9.954 4.032a1.06 1.06 0 0 1 .367 1.718 1.042 1.042 0 0 1-.84.324l-6.794-.48a2.053 2.053 0 0 0-1.92 3.072l2.424 4.198a8.817 8.817 0 0 0 7.95 4.412l10.734-.365a1.061 1.061 0 0 1 .398 2.058l-6.401 2.325a2.05 2.05 0 0 0-.505 3.587l3.922 2.85a8.82 8.82 0 0 0 9.057.796l9.657-4.699a1.06 1.06 0 0 1 1.523.877c.013.185-.01.54-.322.84l-4.901 4.729a2.05 2.05 0 0 0 .997 3.482l4.742 1.008a8.814 8.814 0 0 0 8.598-2.957l6.91-8.22a1.061 1.061 0 0 1 1.797 1.08l-2.49 6.152a2.05 2.05 0 0 0 2.253 2.939l4.742-1.008a8.816 8.816 0 0 0 6.652-6.198l2.97-10.32a1.062 1.062 0 0 1 2.08.256l.234 6.806a2.05 2.05 0 0 0 3.255 1.59l3.922-2.85a8.82 8.82 0 0 0 3.556-8.368l-1.485-10.637a1.063 1.063 0 0 1 1.304-1.177c.181.044.511.177.701.566l2.982 6.123a2.052 2.052 0 0 0 3.62.127l2.424-4.198a8.817 8.817 0 0 0-.155-9.091l-5.683-9.113a1.062 1.062 0 0 1 1.583-1.374l5.215 4.38a2.05 2.05 0 0 0 3.358-1.355l.507-4.822a8.82 8.82 0 0 0-3.839-8.242Zm-.24 7.813-.104.983-2.259-1.898a5.15 5.15 0 0 0-4.233-1.128 5.15 5.15 0 0 0-3.576 2.53 5.156 5.156 0 0 0 .108 5.282l5.683 9.114a4.726 4.726 0 0 1 .082 4.87l-.494.855-1.292-2.652a5.148 5.148 0 0 0-3.408-2.753 5.15 5.15 0 0 0-4.296.857 5.157 5.157 0 0 0-2.05 4.87l1.485 10.636a4.724 4.724 0 0 1-1.905 4.483l-.8.58-.101-2.949a5.147 5.147 0 0 0-1.994-3.9 5.147 5.147 0 0 0-4.274-.964 5.157 5.157 0 0 0-3.853 3.614l-2.97 10.32a4.724 4.724 0 0 1-3.563 3.321l-.957.203 1.106-2.735a5.147 5.147 0 0 0-.235-4.374 5.147 5.147 0 0 0-3.512-2.62 5.158 5.158 0 0 0-4.99 1.736l-6.91 8.22a4.727 4.727 0 0 1-4.607 1.584l-.966-.206 2.123-2.048a5.15 5.15 0 0 0 1.565-4.092 5.147 5.147 0 0 0-2.143-3.821 5.156 5.156 0 0 0-5.264-.445l-9.658 4.699a4.723 4.723 0 0 1-4.852-.427l-.799-.58 2.773-1.008a5.15 5.15 0 0 0 3.094-3.102 5.149 5.149 0 0 0-.404-4.362 5.153 5.153 0 0 0-4.628-2.548l-10.733.365a4.728 4.728 0 0 1-4.26-2.363L37.273 80l2.943.207a5.147 5.147 0 0 0 4.088-1.575 5.15 5.15 0 0 0 1.406-4.149 5.158 5.158 0 0 0-3.193-4.21l-9.953-4.032a4.723 4.723 0 0 1-2.93-3.892l-.103-.982 2.604 1.386a5.147 5.147 0 0 0 4.375.224 5.15 5.15 0 0 0 2.972-3.219 5.158 5.158 0 0 0-1.204-5.144l-7.453-7.733a4.723 4.723 0 0 1-1.094-4.746l.306-.94 1.815 2.327a5.16 5.16 0 0 0 8.923-4.938L37.11 28.489a4.723 4.723 0 0 1 .932-4.781l.66-.734.713 2.863a5.148 5.148 0 0 0 2.762 3.401 5.15 5.15 0 0 0 4.38.055 5.158 5.158 0 0 0 3.018-4.337l.759-10.713a4.723 4.723 0 0 1 2.795-3.989l.903-.401-.514 2.905a5.149 5.149 0 0 0 1.14 4.23A5.148 5.148 0 0 0 58.6 18.82h.036a5.158 5.158 0 0 0 4.52-2.735l5.051-9.478a4.726 4.726 0 0 1 4.177-2.505h1.026L71.723 6.6a5.148 5.148 0 0 0-.68 4.328 5.148 5.148 0 0 0 2.891 3.291 5.158 5.158 0 0 0 5.242-.659l8.47-6.604a4.723 4.723 0 0 1 4.834-.591l.902.402L90.88 8.33a5.148 5.148 0 0 0-2.381 3.677A5.148 5.148 0 0 0 89.8 16.19a5.157 5.157 0 0 0 5.057 1.53l10.423-2.589a4.723 4.723 0 0 1 4.657 1.427l.661.734-2.922.409a5.15 5.15 0 0 0-3.671 2.39 5.147 5.147 0 0 0-.512 4.351 5.157 5.157 0 0 0 3.997 3.455l10.575 1.875a4.725 4.725 0 0 1 3.675 3.197l.287.886-2.829-.813a5.15 5.15 0 0 0-4.326.69 5.144 5.144 0 0 0-2.237 3.767 5.155 5.155 0 0 0 2.247 4.782l8.897 6.014a4.722 4.722 0 0 1 2.057 4.414Z"/>
    <path fill="#fff" d="M106.698 40.424c-.368-1.55-1.229-2.97-2.478-4.091l-6.424-5.763c-.607-.545-1.592-.545-2.199 0l-.957.859-2-1.794.957-.859c.608-.544.608-1.428 0-1.973l-4.092-3.67c-.607-.545-1.592-.545-2.2 0l-6.511 5.841c-.608.545-.608 1.428 0 1.973l4.092 3.67c.607.546 1.592.546 2.2 0l.957-.858 2 1.794-.959.86c-.607.544-.607 1.427-.001 1.971l.783.704-33.653 30.189c-1.916 1.719-1.916 4.506 0 6.225 1.916 1.719 5.023 1.719 6.94 0l33.646-30.183 1.678 1.508c2.652 2.384 4.154 5.607 4.182 8.974.003.372.289.694.692.78.403.086.82-.086 1.009-.417 2.778-4.848 3.603-10.408 2.338-15.74Z"/>
    <path fill="#fff" d="m94.56 79.57 8.736-7.981c.77-.704.81-1.887.089-2.644l-3.134-3.287c-2.366-2.482-6.016-3.1-9.01-1.79l-21.027-22.06 4.217-3.852a1.157 1.157 0 0 0 .056-1.66l-6.55-6.87c-2.922-3.066-7.224-4.48-11.432-3.757l-3.46.594a1.497 1.497 0 0 0-1.205 1.1l-.844 3.34c-1.027 4.059.117 8.359 3.039 11.424l6.55 6.87a1.218 1.218 0 0 0 1.695.06l4.216-3.852L87.521 67.26a7.613 7.613 0 0 0 1.205 8.927l3.134 3.287a1.94 1.94 0 0 0 2.7.096Zm-3.046-5.93a3.929 3.929 0 0 1 .19-5.639V68c1.64-1.497 4.224-1.405 5.759.205l1.828 1.918-5.949 5.435-1.828-1.918Z"/>
  </g>
  <path fill="#fff" d="M12 131h132v4H12zm4.71 8.984h3.036c.383 0 .8.02 1.254.059.46.031.918.113 1.371.246.461.125.902.32 1.324.586.43.266.809.629 1.137 1.09.328.453.59 1.023.785 1.711.203.687.305 1.523.305 2.508v.703c0 1.07-.094 1.988-.281 2.754-.18.757-.422 1.398-.727 1.921-.305.516-.66.93-1.066 1.243-.399.312-.817.55-1.254.715-.43.156-.867.261-1.313.316-.437.047-.851.07-1.242.07h-.293V160h-3.035v-20.016Zm3.188 11.696c.547 0 1.008-.078 1.383-.235a1.99 1.99 0 0 0 .89-.75c.227-.343.388-.781.481-1.312.102-.539.153-1.184.153-1.934v-1.804c0-.594-.043-1.106-.13-1.536-.085-.437-.241-.797-.468-1.078a1.902 1.902 0 0 0-.89-.621c-.376-.14-.848-.211-1.419-.211h-.152v9.481h.152Zm11.92-11.696h3.294c.375 0 .785.016 1.23.047.453.031.903.11 1.348.235.453.117.887.296 1.3.539a3.72 3.72 0 0 1 1.114.996c.328.422.59.953.785 1.594.195.632.293 1.402.293 2.308v.504c0 1.523-.219 2.766-.656 3.727-.438.953-1.082 1.64-1.934 2.062L41.803 160h-3.21l-2.661-7.488h-1.137V160H31.82v-20.016Zm3.434 10.336c.532 0 .98-.058 1.348-.175a1.87 1.87 0 0 0 .89-.586c.227-.282.391-.649.493-1.102.101-.461.152-1.027.152-1.699v-1.582c0-.516-.047-.961-.14-1.336a2.055 2.055 0 0 0-.48-.926 1.956 1.956 0 0 0-.88-.539c-.367-.117-.828-.176-1.383-.176h-.457v8.121h.457Zm16.878 9.856a7.36 7.36 0 0 1-1.043-.082 3.916 3.916 0 0 1-1.114-.317 4.35 4.35 0 0 1-1.066-.691c-.336-.305-.637-.703-.902-1.195-.258-.493-.465-1.098-.621-1.817-.157-.726-.235-1.59-.235-2.59v-7.089c0-1.008.078-1.868.235-2.579.164-.718.379-1.32.644-1.804.266-.492.566-.883.903-1.172a3.957 3.957 0 0 1 1.066-.656 4.287 4.287 0 0 1 1.113-.305 8.06 8.06 0 0 1 1.02-.07c.297 0 .625.023.984.07.367.039.73.133 1.09.281.367.141.723.356 1.066.645.344.281.649.668.914 1.16.266.484.477 1.09.633 1.816.164.719.246 1.59.246 2.614v7.089c0 .993-.082 1.848-.246 2.567-.164.711-.379 1.316-.644 1.816-.266.492-.575.891-.926 1.195a4.69 4.69 0 0 1-1.066.704c-.36.164-.72.273-1.079.328a6.606 6.606 0 0 1-.972.082Zm0-2.285c.297 0 .554-.051.773-.153.227-.101.41-.277.55-.527.15-.25.259-.578.329-.984.078-.415.117-.934.117-1.559v-9.106c0-.64-.039-1.175-.117-1.605-.07-.43-.18-.773-.328-1.031-.14-.266-.324-.453-.55-.563a1.715 1.715 0 0 0-.774-.164c-.305 0-.57.055-.797.164-.227.11-.414.297-.563.563-.148.258-.261.601-.34 1.031-.07.43-.105.965-.105 1.605v9.106c0 .625.035 1.144.105 1.559.079.406.192.734.34.984.149.25.336.426.563.527.226.102.492.153.797.153Zm11.404-17.907h3.036v8.379h3.597v-8.379h3.035V160h-3.035v-9.246H66.57V160h-3.036v-20.016Zm16.725 0h3.035V160H80.26v-20.016Zm10.07 0h7.417v2.391h-4.383v5.988h3.387v2.391h-3.387v6.855h4.5V160h-7.535v-20.016Zm13.326 0h3.293c.375 0 .785.016 1.23.047.453.031.902.11 1.348.235.453.117.886.296 1.301.539.421.242.793.574 1.113.996.328.422.59.953.785 1.594.195.632.293 1.402.293 2.308v.504c0 1.523-.219 2.766-.656 3.727-.438.953-1.082 1.64-1.934 2.062l3.211 8.004h-3.211l-2.66-7.488h-1.137V160h-2.976v-20.016Zm3.433 10.336c.532 0 .981-.058 1.348-.175.367-.118.664-.313.891-.586.226-.282.39-.649.492-1.102.101-.461.152-1.027.152-1.699v-1.582c0-.516-.047-.961-.141-1.336a2.043 2.043 0 0 0-.48-.926 1.958 1.958 0 0 0-.879-.539c-.367-.117-.828-.176-1.383-.176h-.457v8.121h.457Zm12.448-10.336h3.293c.375 0 .785.016 1.23.047.453.031.903.11 1.348.235.453.117.887.296 1.301.539.422.242.793.574 1.113.996.328.422.59.953.785 1.594.196.632.293 1.402.293 2.308v.504c0 1.523-.219 2.766-.656 3.727-.438.953-1.082 1.64-1.934 2.062L129.52 160h-3.211l-2.66-7.488h-1.137V160h-2.976v-20.016Zm3.434 10.336c.531 0 .98-.058 1.347-.175.367-.118.664-.313.891-.586.226-.282.39-.649.492-1.102.102-.461.152-1.027.152-1.699v-1.582c0-.516-.047-.961-.14-1.336a2.054 2.054 0 0 0-.481-.926 1.952 1.952 0 0 0-.879-.539c-.367-.117-.828-.176-1.382-.176h-.458v8.121h.458Zm16.877 9.856c-.32 0-.668-.028-1.043-.082a3.912 3.912 0 0 1-1.113-.317 4.34 4.34 0 0 1-1.067-.691c-.336-.305-.636-.703-.902-1.195-.258-.493-.465-1.098-.621-1.817-.156-.726-.235-1.59-.235-2.59v-7.089c0-1.008.079-1.868.235-2.579.164-.718.379-1.32.644-1.804.266-.492.567-.883.903-1.172a3.957 3.957 0 0 1 1.066-.656 4.287 4.287 0 0 1 1.113-.305c.368-.047.707-.07 1.02-.07.297 0 .625.023.984.07.367.039.731.133 1.09.281.367.141.723.356 1.067.645.343.281.648.668.914 1.16.265.484.476 1.09.632 1.816.164.719.246 1.59.246 2.614v7.089c0 .993-.082 1.848-.246 2.567-.164.711-.379 1.316-.644 1.816-.266.492-.574.891-.926 1.195a4.668 4.668 0 0 1-1.066.704c-.36.164-.719.273-1.078.328a6.63 6.63 0 0 1-.973.082Zm0-2.285c.297 0 .555-.051.773-.153a1.19 1.19 0 0 0 .551-.527c.149-.25.258-.578.328-.984.078-.415.117-.934.117-1.559v-9.106c0-.64-.039-1.175-.117-1.605-.07-.43-.179-.773-.328-1.031-.141-.266-.324-.453-.551-.563a1.71 1.71 0 0 0-.773-.164c-.305 0-.57.055-.797.164-.227.11-.414.297-.562.563-.149.258-.262.601-.34 1.031-.071.43-.106.965-.106 1.605v9.106c0 .625.035 1.144.106 1.559.078.406.191.734.34.984.148.25.335.426.562.527.227.102.492.153.797.153ZM33.212 110.822h5.42v1.694h-3.27v4.241h2.565v1.694h-2.565V125h-2.15v-14.178Zm9.406 0h5.255v1.694h-3.105v4.241h2.4v1.694h-2.4v4.856h3.188V125h-5.338v-14.178Zm9.44 0h2.333c.265 0 .556.011.871.033.321.023.64.078.955.166.32.083.628.211.921.382.299.172.562.407.789.706.232.299.417.675.556 1.129.138.448.207.993.207 1.635v.357c0 1.079-.155 1.959-.465 2.64-.31.675-.766 1.162-1.37 1.461L59.13 125h-2.274l-1.884-5.304h-.806V125h-2.108v-14.178Zm2.432 7.322c.376 0 .695-.042.955-.125.26-.083.47-.221.63-.415.161-.199.277-.459.35-.78.071-.327.107-.728.107-1.204v-1.12c0-.366-.033-.681-.1-.947a1.462 1.462 0 0 0-.34-.656 1.389 1.389 0 0 0-.622-.381c-.26-.083-.587-.125-.98-.125h-.324v5.753h.324Zm8.817-7.322h2.333c.265 0 .556.011.871.033.321.023.64.078.955.166.32.083.628.211.921.382.3.172.562.407.789.706.232.299.418.675.556 1.129.138.448.208.993.208 1.635v.357c0 1.079-.155 1.959-.465 2.64-.31.675-.767 1.162-1.37 1.461L70.38 125h-2.274l-1.884-5.304h-.805V125h-2.109v-14.178Zm2.432 7.322c.377 0 .695-.042.955-.125.26-.083.47-.221.63-.415.161-.199.278-.459.35-.78.071-.327.107-.728.107-1.204v-1.12c0-.366-.033-.681-.1-.947a1.462 1.462 0 0 0-.34-.656 1.388 1.388 0 0 0-.622-.381c-.26-.083-.587-.125-.98-.125h-.323v5.753h.323Zm8.817-7.322h5.255v1.694h-3.105v4.241h2.4v1.694h-2.4v4.856h3.188V125h-5.338v-14.178Zm10.752 1.694h-2.283v-1.694h6.707v1.694h-2.275V125h-2.15v-12.484Zm8.427-1.694h5.254v1.694h-3.105v4.241h2.4v1.694h-2.4v4.856h3.188V125h-5.337v-14.178Zm9.439 0h2.333c.265 0 .556.011.871.033.321.023.639.078.955.166.321.083.628.211.921.382.299.172.562.407.789.706.232.299.418.675.556 1.129.138.448.208.993.208 1.635v.357c0 1.079-.155 1.959-.465 2.64-.31.675-.767 1.162-1.37 1.461l2.274 5.669h-2.274l-1.884-5.304h-.805V125h-2.109v-14.178Zm2.432 7.322c.377 0 .695-.042.955-.125.26-.083.47-.221.631-.415.16-.199.276-.459.348-.78a5.7 5.7 0 0 0 .108-1.204v-1.12c0-.366-.033-.681-.099-.947a1.464 1.464 0 0 0-.341-.656 1.387 1.387 0 0 0-.622-.381c-.26-.083-.587-.125-.98-.125h-.323v5.753h.323Zm8.817-7.322h2.15V125h-2.15v-14.178Zm8.693 0h2.474L128.213 125h-2.175l-.39-2.54h-2.59l-.374 2.54h-2.183l2.615-14.178Zm2.283 10.019-.996-7.064h-.092l-1.004 7.064h2.092Z"/>
  <path fill="url(#b)" d="M31.808 132.651h22.611v22.377H31.808z" transform="rotate(134.38 31.808 132.651)"/>
  <path fill="url(#c)" d="M159.424 133.453h12.256v16.3h-12.256z" transform="rotate(134.638 159.424 133.453)"/>
  <defs>
    <pattern id="b" width="1" height="1" patternContentUnits="objectBoundingBox">
      <use xlink:href="#e" transform="matrix(.00247 0 0 .0025 0 -.004)"/>
    </pattern>
    <pattern id="c" width="1" height="1" patternContentUnits="objectBoundingBox">
      <use xlink:href="#f" transform="matrix(.00811 0 0 .0061 -.064 0)"/>
    </pattern>
    <clipPath id="a">
      <path fill="#fff" d="M0 0h105v105H0z" transform="translate(25)"/>
    </clipPath>
  </defs>
</svg>
