<svg xmlns="http://www.w3.org/2000/svg" width="110" height="110" fill="none" viewBox="0 0 40 53">
  <g clip-path="url(#a)">
    <path fill="#000" d="m38.505 17.103-3.39-2.29a.404.404 0 0 1 .338-.724l2.343.673a.78.78 0 0 0 1.135-.85l-.004-.02a.795.795 0 0 0-.041-.133l-.547-1.683a3.36 3.36 0 0 0-2.613-2.273l-4.029-.714a.403.403 0 0 1 .015-.799l2.57-.36a.781.781 0 0 0 .472-1.296l-1.236-1.372a3.358 3.358 0 0 0-3.312-1.014l-3.97.986a.404.404 0 0 1-.312-.735l2.2-1.374a.782.782 0 0 0-.095-1.376L26.342.997a3.359 3.359 0 0 0-3.438.421l-3.227 2.516a.404.404 0 0 1-.583-.545l1.452-2.15a.778.778 0 0 0 .133-.475.78.78 0 0 0-.78-.764H18.05a3.359 3.359 0 0 0-2.97 1.782l-1.924 3.611a.404.404 0 0 1-.354.214H12.8a.399.399 0 0 1-.308-.143.399.399 0 0 1-.09-.331l.453-2.555a.782.782 0 0 0-1.087-.85l-1.688.751a3.359 3.359 0 0 0-1.988 2.837l-.289 4.08a.404.404 0 0 1-.795.07l-.626-2.518a.781.781 0 0 0-1.34-.334L3.808 7.986a3.359 3.359 0 0 0-.662 3.4l1.395 3.846a.404.404 0 0 1-.698.387l-1.596-2.046a.78.78 0 0 0-1.36.24l-.57 1.756a3.36 3.36 0 0 0 .778 3.375l2.839 2.946a.404.404 0 0 1-.481.637l-2.29-1.22a.782.782 0 0 0-1.144.772l.193 1.837a3.36 3.36 0 0 0 2.083 2.767l3.792 1.536a.404.404 0 0 1-.18.778l-2.588-.183a.782.782 0 0 0-.731 1.17l.923 1.6a3.36 3.36 0 0 0 3.029 1.68l4.089-.139a.404.404 0 0 1 .151.784l-2.438.886a.781.781 0 0 0-.192 1.366l1.494 1.086a3.36 3.36 0 0 0 3.45.303l3.679-1.79a.404.404 0 0 1 .457.655l-1.867 1.801a.781.781 0 0 0 .38 1.326l1.806.384a3.358 3.358 0 0 0 3.275-1.126l2.634-3.131a.404.404 0 0 1 .684.411l-.948 2.344a.78.78 0 0 0 .858 1.12l1.806-.385a3.359 3.359 0 0 0 2.534-2.36l1.132-3.933a.404.404 0 0 1 .792.098l.09 2.593a.781.781 0 0 0 1.24.605l1.493-1.085a3.359 3.359 0 0 0 1.355-3.188l-.566-4.052a.404.404 0 0 1 .764-.233l1.136 2.333a.781.781 0 0 0 1.379.048l.923-1.6a3.36 3.36 0 0 0-.058-3.462l-2.165-3.472a.404.404 0 0 1 .603-.523l1.986 1.668a.781.781 0 0 0 1.28-.516l.193-1.837a3.36 3.36 0 0 0-1.463-3.14Zm-.091 2.977-.04.374-.86-.723a1.962 1.962 0 0 0-1.613-.43 1.965 1.965 0 0 0-1.321 2.976l2.165 3.472a1.8 1.8 0 0 1 .031 1.856l-.188.325-.492-1.01a1.961 1.961 0 0 0-1.299-1.049 1.965 1.965 0 0 0-2.417 2.182l.565 4.052a1.8 1.8 0 0 1-.725 1.708l-.305.22-.038-1.123a1.961 1.961 0 0 0-.76-1.486 1.964 1.964 0 0 0-3.096 1.01l-1.131 3.932a1.8 1.8 0 0 1-1.358 1.264l-.364.078.421-1.042a1.96 1.96 0 0 0-.09-1.667 1.965 1.965 0 0 0-3.239-.337l-2.632 3.132a1.8 1.8 0 0 1-1.755.604l-.368-.079.81-.78c.42-.407.638-.975.595-1.559a1.964 1.964 0 0 0-2.822-1.625l-3.679 1.79a1.8 1.8 0 0 1-1.848-.163l-.304-.22 1.056-.385c.55-.2.98-.63 1.178-1.181a1.961 1.961 0 0 0-.153-1.662 1.963 1.963 0 0 0-1.763-.97l-4.09.138a1.801 1.801 0 0 1-1.622-.9l-.188-.326 1.121.08a1.96 1.96 0 0 0 1.558-.6 1.965 1.965 0 0 0-.68-3.185L2.88 25.234a1.8 1.8 0 0 1-1.116-1.482l-.04-.374.993.528a1.96 1.96 0 0 0 1.666.085 1.965 1.965 0 0 0 .674-3.186l-2.84-2.945a1.8 1.8 0 0 1-.416-1.809l.116-.358.692.887a1.966 1.966 0 0 0 3.4-1.881l-1.397-3.846a1.8 1.8 0 0 1 .355-1.821l.252-.28.271 1.09c.142.57.525 1.041 1.053 1.296a1.965 1.965 0 0 0 2.818-1.631l.289-4.081a1.8 1.8 0 0 1 1.065-1.52l.344-.153-.196 1.107a1.962 1.962 0 0 0 .434 1.612c.375.444.922.698 1.502.698h.014a1.965 1.965 0 0 0 1.722-1.042l1.924-3.61a1.8 1.8 0 0 1 1.591-.955h.391l-.643.952a1.961 1.961 0 0 0-.258 1.648 1.965 1.965 0 0 0 3.098 1.003l3.226-2.516a1.8 1.8 0 0 1 1.842-.225l.343.153-.953.595c-.497.31-.828.82-.907 1.401a1.965 1.965 0 0 0 2.423 2.176l3.97-.986a1.8 1.8 0 0 1 1.774.544l.252.28-1.113.155c-.58.081-1.09.413-1.399.91a1.965 1.965 0 0 0 1.328 2.973l4.028.716a1.8 1.8 0 0 1 1.4 1.217l.11.338-1.078-.31a1.962 1.962 0 0 0-1.648.264 1.965 1.965 0 0 0 .004 3.256l3.39 2.291c.552.373.852 1.018.783 1.682Z"/>
    <path fill="#000" d="M31.006 16.267a3.026 3.026 0 0 0-.912-1.542l-2.365-2.17a.61.61 0 0 0-.81 0l-.352.323-.737-.675.353-.324a.495.495 0 0 0 0-.743l-1.507-1.382a.61.61 0 0 0-.81 0l-2.397 2.2a.495.495 0 0 0 0 .743l1.506 1.383a.61.61 0 0 0 .81 0l.353-.324.736.676-.353.323a.495.495 0 0 0 0 .743l.288.265-12.39 11.37a1.563 1.563 0 0 0 0 2.345c.705.647 1.85.647 2.555 0L27.36 18.11l.619.568c.976.898 1.529 2.112 1.539 3.38.001.14.106.261.255.294a.342.342 0 0 0 .371-.157 8.26 8.26 0 0 0 .861-5.928Z"/>
    <path fill="#000" d="m26.498 30.313 3.329-3.041a.702.702 0 0 0 .034-1.007l-1.194-1.252a3.063 3.063 0 0 0-3.433-.683l-8.01-8.403 1.607-1.467a.441.441 0 0 0 .02-.633l-2.494-2.617a4.883 4.883 0 0 0-4.355-1.431l-1.319.226a.57.57 0 0 0-.458.42l-.322 1.271a4.65 4.65 0 0 0 1.158 4.353l2.495 2.617c.172.18.461.191.646.023l1.606-1.468 8.01 8.402a2.9 2.9 0 0 0 .458 3.4l1.194 1.253a.739.739 0 0 0 1.029.037Zm-1.16-2.26a1.497 1.497 0 0 1 .072-2.148h.001a1.578 1.578 0 0 1 2.194.078l.696.73-2.266 2.07-.697-.73Z"/>
  </g>
  <path fill="#000" d="M0 41h40v2H0zm.499 4.162h.885c.112 0 .234.006.366.017.134.01.268.033.4.072.134.036.263.093.386.17.125.078.236.184.332.319.095.132.172.298.229.499.059.2.089.444.089.731v.205c0 .313-.028.58-.082.803a2.058 2.058 0 0 1-.212.561c-.09.15-.193.271-.311.362a1.407 1.407 0 0 1-.366.209 1.737 1.737 0 0 1-.383.092c-.128.014-.248.02-.362.02h-.086V51H.5v-5.838Zm.93 3.411c.16 0 .294-.023.403-.068a.58.58 0 0 0 .26-.219c.066-.1.113-.228.14-.383a3.09 3.09 0 0 0 .044-.564v-.526c0-.173-.012-.322-.037-.448a.71.71 0 0 0-.137-.314.555.555 0 0 0-.26-.181 1.19 1.19 0 0 0-.413-.062h-.045v2.765h.045Zm3.476-3.41h.96c.11 0 .23.004.36.013.132.009.263.032.393.068.132.034.258.087.38.157.122.071.23.168.324.29.096.124.172.279.229.466.057.184.085.409.085.673v.147c0 .444-.063.807-.191 1.087a1.203 1.203 0 0 1-.564.602L7.818 51H6.88l-.776-2.184h-.331V51h-.869v-5.838Zm1.002 3.014c.155 0 .286-.017.393-.051a.543.543 0 0 0 .26-.171.775.775 0 0 0 .143-.322c.03-.134.045-.3.045-.495v-.462c0-.15-.014-.28-.041-.39a.6.6 0 0 0-.14-.27.57.57 0 0 0-.257-.157 1.346 1.346 0 0 0-.403-.05h-.133v2.368h.133Zm4.922 2.874a2.12 2.12 0 0 1-.304-.024 1.139 1.139 0 0 1-.324-.092 1.271 1.271 0 0 1-.311-.202 1.296 1.296 0 0 1-.264-.348 2.115 2.115 0 0 1-.18-.53 3.636 3.636 0 0 1-.07-.755v-2.068c0-.294.024-.545.07-.752.047-.21.11-.385.187-.527a1.19 1.19 0 0 1 .263-.341 1.258 1.258 0 0 1 .636-.28 2.3 2.3 0 0 1 .297-.021c.087 0 .183.007.288.02.107.012.213.04.317.082a1.111 1.111 0 0 1 .578.526c.078.142.14.319.185.53.048.21.072.464.072.763V49.1c0 .289-.024.538-.072.748-.048.208-.11.384-.188.53a1.225 1.225 0 0 1-.581.554c-.105.047-.21.08-.315.095-.105.016-.2.024-.284.024Zm0-.666a.53.53 0 0 0 .226-.045.34.34 0 0 0 .16-.154.847.847 0 0 0 .096-.287c.023-.12.035-.272.035-.454v-2.656a2.68 2.68 0 0 0-.035-.468.898.898 0 0 0-.095-.301.36.36 0 0 0-.16-.164.499.499 0 0 0-.226-.048.529.529 0 0 0-.233.048.379.379 0 0 0-.164.164.949.949 0 0 0-.1.3c-.02.126-.03.282-.03.47v2.655c0 .182.01.334.03.454a.897.897 0 0 0 .1.288.366.366 0 0 0 .164.153c.066.03.144.045.232.045Zm3.327-5.223h.885v2.444h1.05v-2.444h.885V51h-.886v-2.697h-1.049V51h-.885v-5.838Zm4.878 0h.885V51h-.885v-5.838Zm2.937 0h2.163v.697h-1.278v1.747h.988v.697h-.988v2h1.313V51H21.97v-5.838Zm3.887 0h.96c.11 0 .23.005.359.014.132.009.263.032.393.068.132.034.259.087.38.157.123.071.23.168.324.29.096.124.172.279.23.466.056.184.085.409.085.673v.147c0 .444-.064.807-.192 1.087a1.203 1.203 0 0 1-.564.602L28.77 51h-.937l-.776-2.184h-.331V51h-.868v-5.838Zm1.001 3.015c.155 0 .286-.017.393-.051a.543.543 0 0 0 .26-.171.775.775 0 0 0 .143-.322c.03-.134.045-.3.045-.495v-.462c0-.15-.014-.28-.041-.39a.6.6 0 0 0-.14-.27.57.57 0 0 0-.257-.157 1.346 1.346 0 0 0-.403-.05h-.133v2.368h.133Zm3.63-3.015h.961c.11 0 .23.005.359.014.132.009.263.032.393.068.132.034.259.087.38.157.123.071.23.168.324.29.096.124.172.279.23.466.056.184.085.409.085.673v.147c0 .444-.064.807-.192 1.087a1.203 1.203 0 0 1-.564.602L33.402 51h-.937l-.776-2.184h-.331V51h-.868v-5.838Zm1.002 3.015c.155 0 .286-.017.393-.051a.543.543 0 0 0 .26-.171.774.774 0 0 0 .144-.322c.03-.134.044-.3.044-.495v-.462c0-.15-.014-.28-.041-.39a.598.598 0 0 0-.14-.27.57.57 0 0 0-.257-.157 1.346 1.346 0 0 0-.403-.05h-.133v2.368h.133Zm4.923 2.874a2.11 2.11 0 0 1-.305-.024 1.139 1.139 0 0 1-.324-.092 1.272 1.272 0 0 1-.311-.202 1.299 1.299 0 0 1-.263-.348 2.12 2.12 0 0 1-.182-.53 3.635 3.635 0 0 1-.068-.755v-2.068c0-.294.023-.545.068-.752.048-.21.11-.385.188-.527a1.19 1.19 0 0 1 .264-.341c.1-.085.203-.148.31-.192.11-.045.218-.075.325-.089a2.248 2.248 0 0 1 .584 0c.108.012.214.04.319.082a1.113 1.113 0 0 1 .578.526c.077.142.138.319.184.53.048.21.072.464.072.763V49.1c0 .289-.024.538-.072.748-.048.208-.11.384-.188.53a1.225 1.225 0 0 1-.581.554c-.105.047-.21.08-.315.095a1.894 1.894 0 0 1-.283.024Zm0-.666a.53.53 0 0 0 .225-.045.34.34 0 0 0 .16-.154.847.847 0 0 0 .097-.287 2.58 2.58 0 0 0 .034-.454v-2.656a2.68 2.68 0 0 0-.034-.468.898.898 0 0 0-.096-.301.361.361 0 0 0-.16-.164.499.499 0 0 0-.226-.048.529.529 0 0 0-.233.048.379.379 0 0 0-.164.164.949.949 0 0 0-.099.3c-.02.126-.03.282-.03.47v2.655c0 .182.01.334.03.454a.897.897 0 0 0 .1.288.366.366 0 0 0 .163.153.56.56 0 0 0 .233.045Z"/>
  <defs>
    <clipPath id="a">
      <path fill="#fff" d="M0 0h40v40H0z"/>
    </clipPath>
  </defs>
</svg>
